<?xml version="1.0" ?><svg viewBox="0 0 64 64" xmlns="http://www.w3.org/2000/svg"><g id="Glyph"><g data-name="Glyph" id="Glyph-2"><path fill="#8ecae6" d="M32,24A14,14,0,1,0,46,38,14,14,0,0,0,32,24Zm6.8,13.46-6.13,6.81a3.3,3.3,0,0,1-4.75.13L24.52,41a3.27,3.27,0,1,1,4.62-4.63l1,1,3.83-4.25a3.27,3.27,0,0,1,4.86,4.38Z"/><path fill="#022f46" d="M54,6H51V5.5a3.5,3.5,0,0,0-7,0V6H35.5V5.5a3.5,3.5,0,0,0-7,0V6H20V5.5a3.5,3.5,0,0,0-7,0V6H10a5,5,0,0,0-5,5V57a5,5,0,0,0,5,5H54a5,5,0,0,0,5-5V11A5,5,0,0,0,54,6Zm-8-.5a1.5,1.5,0,0,1,3,0v4a1.5,1.5,0,0,1-3,0Zm-15.5,0a1.5,1.5,0,0,1,3,0v4a1.5,1.5,0,0,1-3,0ZM15,5.5a1.5,1.5,0,0,1,3,0v4a1.5,1.5,0,0,1-3,0ZM48,54.59V50a3,3,0,0,1,3-3h4.59ZM57,44a1,1,0,0,1-1,1H51a5,5,0,0,0-5,5v5a1,1,0,0,1-1,1l-35-.06a3,3,0,0,1-3-3V20H57Z"/></g></g></svg>